<svg xmlns="http://www.w3.org/2000/svg" xml:space="preserve" width="280px" height="60,12px" version="1.1" style="shape-rendering:geometricPrecision; text-rendering:geometricPrecision; image-rendering:optimizeQuality; fill-rule:evenodd; clip-rule:evenodd"
viewBox="0 0 75.31 16.17"
 xmlns:xlink="http://www.w3.org/1999/xlink"
 xmlns:xodm="http://www.corel.com/coreldraw/odm/2003">
 <defs>
  <style type="text/css">
   <![CDATA[
    .fil1 {fill:#0E1921}
    .fil2 {fill:#8BD6F7}
    .fil0 {fill:#F77220;fill-rule:nonzero}
   ]]>
  </style>
 </defs>
 <g id="Camada_x0020_1">
  <metadata id="CorelCorpID_0Corel-Layer"/>
  <path class="fil0" d="M22.51 1.04l0 10.86 5.48 0 0 4.27 -9.81 -0.02 0 -15.09 4.33 -0.02zm-13.36 0.02l7.89 15.11 -5.09 0 -2.85 -5.33 -2.85 5.33 -5.09 0 7.99 -15.11zm58.26 0l7.9 15.11 -5.09 0 -2.85 -5.33 -2.85 5.33 -5.09 0 7.98 -15.11zm-14.01 9.71l-3.26 0 0 5.4 -4.89 0 0 -15.11 4.89 0 0 5.4 3.26 0 0 -5.4 4.9 0 0 15.11 -4.9 0 0 -5.4zm-25.22 -2.2c0,-1.03 0.21,-2.01 0.62,-2.92 0.42,-0.91 0.99,-1.71 1.7,-2.38 0.71,-0.68 1.55,-1.22 2.5,-1.61 0.96,-0.4 1.98,-0.6 3.05,-0.6 1.1,0 2.13,0.2 3.09,0.6 0.96,0.39 1.8,0.93 2.51,1.61 0.72,0.67 1.28,1.47 1.7,2.38 0.41,0.91 0.62,1.89 0.62,2.92 0,1.04 -0.21,2.02 -0.62,2.94 -0.42,0.92 -0.98,1.72 -1.7,2.39 -0.71,0.68 -1.55,1.21 -2.51,1.61 -0.96,0.4 -1.99,0.59 -3.09,0.59 -1.07,0 -2.09,-0.19 -3.05,-0.59 -0.95,-0.4 -1.79,-0.93 -2.5,-1.61 -0.71,-0.67 -1.28,-1.47 -1.7,-2.39 -0.41,-0.92 -0.62,-1.9 -0.62,-2.94zm4.62 0c0,0.46 0.08,0.9 0.26,1.3 0.17,0.4 0.41,0.75 0.71,1.06 0.3,0.3 0.65,0.53 1.05,0.71 0.41,0.17 0.84,0.26 1.3,0.26 0.46,0 0.88,-0.09 1.26,-0.26 0.38,-0.18 0.71,-0.41 0.98,-0.71 0.28,-0.31 0.49,-0.66 0.64,-1.06 0.15,-0.4 0.23,-0.84 0.23,-1.3 0,-0.46 -0.08,-0.89 -0.23,-1.29 -0.15,-0.4 -0.36,-0.76 -0.64,-1.06 -0.27,-0.3 -0.6,-0.54 -0.98,-0.71 -0.38,-0.17 -0.8,-0.26 -1.26,-0.26 -0.46,0 -0.89,0.09 -1.3,0.26 -0.4,0.17 -0.75,0.41 -1.05,0.71 -0.3,0.3 -0.54,0.66 -0.71,1.06 -0.18,0.4 -0.26,0.83 -0.26,1.29z"/>
  <path class="fil1" d="M8.21 10.65l-2.6 4.88c-0.05,0.09 -0.14,0.14 -0.24,0.14l-5.1 0c-0.09,0 -0.18,-0.05 -0.23,-0.13 -0.05,-0.09 -0.05,-0.18 -0.01,-0.27l7.99 -15.1c0.04,-0.1 0.13,-0.15 0.24,-0.15 0.1,0 0.19,0.06 0.24,0.15l7.9 15.1c0.04,0.09 0.04,0.19 -0.01,0.27 -0.05,0.08 -0.14,0.13 -0.24,0.13l-5.09 0c-0.1,0 -0.19,-0.05 -0.24,-0.14l-2.61 -4.88zm58.27 0l-2.61 4.88c-0.05,0.09 -0.14,0.14 -0.24,0.14l-5.09 0c-0.1,0 -0.18,-0.05 -0.23,-0.13 -0.05,-0.09 -0.06,-0.18 -0.01,-0.27l7.98 -15.1c0.05,-0.1 0.14,-0.15 0.24,-0.15 0.11,0 0.2,0.06 0.24,0.15l7.9 15.1c0.05,0.09 0.04,0.19 -0.01,0.27 -0.05,0.08 -0.13,0.13 -0.23,0.13l-5.09 0c-0.11,0 -0.19,-0.05 -0.24,-0.14l-2.61 -4.88zm-14.24 -0.37l-2.71 0 0 5.12c0,0.15 -0.12,0.27 -0.27,0.27l-4.9 0c-0.15,0 -0.27,-0.12 -0.27,-0.27l0 -15.11c0,-0.15 0.12,-0.27 0.27,-0.27l4.9 0c0.15,0 0.27,0.12 0.27,0.27l0 5.13 2.71 0 0 -5.13c0,-0.15 0.12,-0.27 0.27,-0.27l4.9 0c0.15,0 0.27,0.12 0.27,0.27l0 15.11c0,0.15 -0.12,0.27 -0.27,0.27l-4.9 0c-0.15,0 -0.27,-0.12 -0.27,-0.27l0 -5.12zm-25.22 -2.48c0,-1.05 0.21,-2.07 0.65,-3.03 0.42,-0.94 1.01,-1.77 1.75,-2.47 0.76,-0.72 1.63,-1.27 2.59,-1.66 1.01,-0.42 2.07,-0.62 3.16,-0.62 1.1,0 2.17,0.2 3.18,0.62 0.97,0.39 1.85,0.94 2.6,1.66 0.75,0.7 1.33,1.53 1.76,2.47 0.44,0.96 0.65,1.98 0.65,3.03 0,1.06 -0.22,2.08 -0.65,3.05 -0.43,0.94 -1.01,1.77 -1.76,2.48 -0.75,0.72 -1.63,1.27 -2.6,1.66 -1.01,0.42 -2.08,0.62 -3.18,0.62 -1.09,0 -2.15,-0.2 -3.16,-0.62 -0.96,-0.39 -1.83,-0.94 -2.59,-1.66 -0.74,-0.71 -1.33,-1.54 -1.75,-2.48 -0.44,-0.97 -0.65,-1.99 -0.65,-3.05zm-5.12 3.05l5.2 0c0.16,0 0.28,0.13 0.28,0.28l0 4.27c0,0.07 -0.03,0.14 -0.08,0.19 -0.06,0.05 -0.12,0.08 -0.2,0.08l-9.81 -0.02c-0.15,0 -0.28,-0.12 -0.28,-0.27l0 -15.09c0,-0.15 0.13,-0.27 0.28,-0.27l4.33 -0.02c0.08,0 0.14,0.03 0.2,0.08 0.05,0.05 0.08,0.12 0.08,0.19l0 10.58zm10.28 -3.05c0,0.41 0.07,0.81 0.24,1.19 0.15,0.37 0.37,0.69 0.65,0.97 0.28,0.28 0.61,0.5 0.97,0.66 0.38,0.16 0.78,0.23 1.19,0.23 0.4,0 0.79,-0.07 1.15,-0.23 0.34,-0.16 0.64,-0.37 0.89,-0.65 0.26,-0.28 0.45,-0.61 0.59,-0.97 0.14,-0.38 0.21,-0.79 0.21,-1.2 0,-0.41 -0.07,-0.81 -0.21,-1.2 -0.14,-0.35 -0.33,-0.68 -0.59,-0.97 -0.25,-0.27 -0.55,-0.49 -0.89,-0.64 -0.36,-0.17 -0.75,-0.24 -1.15,-0.24 -0.41,0 -0.81,0.08 -1.19,0.24 -0.36,0.16 -0.69,0.37 -0.97,0.65 -0.28,0.28 -0.5,0.61 -0.65,0.98 -0.17,0.37 -0.24,0.77 -0.24,1.18z"/>
  <path class="fil2" d="M8.26 0.88l-7.53 14.25 4.47 0 2.77 -5.19c0.05,-0.09 0.14,-0.14 0.24,-0.14 0.11,0 0.2,0.05 0.24,0.14l2.78 5.19 4.47 0 -7.44 -14.25zm58.26 0l-7.53 14.25 4.48 0 2.77 -5.19c0.05,-0.09 0.14,-0.14 0.24,-0.14 0.1,0 0.19,0.05 0.24,0.14l2.77 5.19 4.48 0 -7.45 -14.25zm-13.73 14.25l4.35 0 0 -14.56 -4.35 0 0 5.12c0,0.15 -0.13,0.27 -0.28,0.27l-3.25 0c-0.15,0 -0.28,-0.12 -0.28,-0.27l0 -5.12 -4.35 0 0 14.56 4.35 0 0 -5.13c0,-0.15 0.13,-0.27 0.28,-0.27l3.25 0c0.15,0 0.28,0.12 0.28,0.27l0 5.13zm-25.23 -7.33c0,0.99 0.2,1.93 0.6,2.83 0.4,0.87 0.94,1.64 1.64,2.31 0.7,0.66 1.52,1.18 2.42,1.55 0.94,0.39 1.93,0.57 2.95,0.57 1.02,0 2.03,-0.18 2.98,-0.57 0.9,-0.37 1.72,-0.88 2.43,-1.55 0.69,-0.67 1.24,-1.44 1.63,-2.31 0.41,-0.9 0.6,-1.84 0.6,-2.83 0,-0.98 -0.19,-1.92 -0.6,-2.81 -0.4,-0.87 -0.94,-1.64 -1.63,-2.3 -0.71,-0.67 -1.53,-1.18 -2.43,-1.55 -0.95,-0.39 -1.96,-0.57 -2.98,-0.57 -1.02,0 -2.01,0.18 -2.95,0.57 -0.9,0.37 -1.72,0.88 -2.42,1.55 -0.7,0.66 -1.24,1.43 -1.64,2.3 -0.4,0.89 -0.6,1.83 -0.6,2.81zm4.08 0c0,-0.48 0.09,-0.95 0.28,-1.4 0.18,-0.43 0.44,-0.81 0.77,-1.14 0.33,-0.33 0.71,-0.59 1.14,-0.77 0.44,-0.19 0.92,-0.28 1.4,-0.28 0.48,0 0.94,0.08 1.37,0.28 0.41,0.19 0.77,0.45 1.08,0.78 0.3,0.33 0.53,0.72 0.69,1.14 0.16,0.45 0.24,0.92 0.24,1.39 0,0.48 -0.08,0.95 -0.24,1.39 -0.16,0.43 -0.39,0.81 -0.69,1.15 -0.31,0.33 -0.67,0.59 -1.08,0.77 -0.43,0.2 -0.89,0.29 -1.37,0.29 -0.48,0 -0.96,-0.09 -1.4,-0.28 -0.43,-0.19 -0.81,-0.44 -1.14,-0.77 -0.33,-0.33 -0.59,-0.72 -0.77,-1.15 -0.19,-0.44 -0.28,-0.91 -0.28,-1.4zm-10.29 -7.25l-3.79 0.02 0 14.54 9.27 0.02 0 -3.73 -5.21 0c-0.15,0 -0.27,-0.12 -0.27,-0.27l0 -10.58z"/>
 </g>
</svg>
