<svg xmlns="http://www.w3.org/2000/svg" xml:space="preserve" width="650px" height="136px" version="1.1" style="shape-rendering:geometricPrecision; text-rendering:geometricPrecision; image-rendering:optimizeQuality; fill-rule:evenodd; clip-rule:evenodd"
viewBox="0 0 65475 13715"
 xmlns:xlink="http://www.w3.org/1999/xlink"
 xmlns:xodm="http://www.corel.com/coreldraw/odm/2003">
 <defs>
  <style type="text/css">
   <![CDATA[
    .fil1 {fill:#91D8F7}
    .fil0 {fill:#F47D35;fill-rule:nonzero}
   ]]>
  </style>
 </defs>
 <g id="Camada_x0020_1">
  <metadata id="CorelCorpID_0Corel-Layer"/>
  <path class="fil0" d="M7392 455l6933 13260 -4470 0 -234 -438 3924 0c86,0 160,-41 204,-115 45,-73 47,-158 8,-235l-6443 -12323 78 -149zm-383 9227l-2155 4033 -4470 0 231 -438 3459 0c90,0 168,-46 211,-126l2289 -4284 435 815zm51533 -9227l6933 13260 -4470 0 -234 -438 3924 0c86,0 160,-41 204,-115 45,-73 48,-158 8,-235l-6443 -12323 78 -149zm-382 9227l-2156 4033 -4470 0 231 -438 3459 0c90,0 168,-46 211,-126l2289 -4284 436 815zm-12935 -703l-1841 0 0 4736 -4300 0 0 -438 3520 0c131,0 239,-107 239,-239l0 -4496 2382 0 0 437zm-2382 -8524l541 0 0 3820 -541 0 0 -3820zm7160 0l541 0 0 12468 -2 3c-39,74 -38,156 2,228l0 561 -4299 0 0 -438 3519 0c132,0 239,-107 239,-239l0 -12583zm-13558 2479c389,463 713,979 972,1546 367,802 550,1658 550,2567 0,909 -183,1768 -550,2576 -366,808 -862,1509 -1487,2103 -625,593 -1360,1064 -2206,1411 -846,347 -1749,521 -2709,521 -947,0 -1841,-174 -2680,-521 -370,-153 -718,-329 -1046,-530 58,26 116,50 174,74 884,366 1815,540 2771,540 966,0 1907,-173 2800,-539 846,-347 1617,-829 2281,-1459 655,-622 1167,-1355 1540,-2177 384,-848 570,-1744 570,-2675 0,-928 -185,-1822 -570,-2666 -122,-267 -259,-524 -410,-771zm-8290 4113c0,404 75,783 227,1137 18,41 37,83 57,124l-43 -42c-247,-246 -437,-532 -574,-853 -143,-332 -208,-682 -208,-1042 0,-361 65,-711 208,-1043 137,-320 327,-606 574,-853 246,-246 533,-437 853,-574 332,-142 682,-208 1042,-208 350,0 690,61 1010,206 195,89 375,199 538,334 -240,-69 -496,-103 -767,-103 -404,0 -783,76 -1137,227 -353,152 -663,360 -928,625 -265,266 -473,575 -625,929 -152,353 -227,732 -227,1136zm-9028 -6611l0 8612 -541 0 0 -8609 541 -3zm4270 9528l542 0 0 3751 -8619 -19 0 -436 7838 17c66,1 123,-23 169,-69 47,-47 70,-104 70,-170l0 -3074z"/>
  <path class="fil1" d="M6611 292l-6611 12507 3930 0 2433 -4552c43,-80 121,-126 211,-126 90,0 168,46 211,126l2433 4552 3932 0 -6539 -12507zm51150 0l-6611 12507 3931 0 2432 -4552c43,-80 121,-126 211,-126 91,0 168,46 211,126l2433 4552 3932 0 -6539 -12507zm-12058 12507l3822 0 0 -12781 -3822 0 0 4496c0,132 -107,239 -239,239l-2860 0c-132,0 -239,-107 -239,-239l0 -4496 -3822 0 0 12781 3822 0 0 -4496c0,-132 107,-239 239,-239l2860 0c132,0 239,107 239,239l0 4496zm-22143 -6428c0,863 172,1692 528,2477 347,767 823,1448 1433,2028 619,588 1337,1038 2125,1364 826,341 1695,503 2588,503 903,0 1783,-161 2618,-504 792,-324 1513,-773 2133,-1363 611,-580 1087,-1261 1434,-2028 356,-785 528,-1614 528,-2477 0,-860 -170,-1686 -527,-2468 -349,-763 -826,-1441 -1435,-2019 -620,-589 -1341,-1038 -2133,-1363 -835,-343 -1715,-503 -2618,-503 -893,0 -1762,161 -2588,503 -788,325 -1506,776 -2125,1363 -608,578 -1085,1256 -1434,2019 -357,782 -527,1608 -527,2468zm3575 0c0,-426 79,-839 247,-1231 161,-376 386,-714 676,-1003 289,-289 626,-514 1003,-676 391,-167 805,-246 1230,-246 418,0 826,76 1207,248 359,163 676,390 940,683 267,294 467,633 606,1004 147,392 214,803 214,1221 0,418 -67,828 -214,1220 -139,371 -339,711 -606,1005 -264,292 -581,519 -940,682 -381,173 -789,249 -1207,249 -425,0 -839,-79 -1230,-247 -377,-161 -714,-386 -1003,-676 -290,-289 -515,-626 -676,-1003 -168,-391 -247,-805 -247,-1230zm-9027 -6371l-3330 17 0 12764 8141 18 0 -3272 -4572 0c-132,0 -239,-108 -239,-239l0 -9288z"/>
 </g>
</svg>
